# xmcd CD database file
#
# Track frame offsets:
#	150
#	16477
#	33947
#	48538
#	64314
#	77873
#	97388
#	107343
#	119977
#	131620
#	141739
#	155038
#	216159
#	231360
#	243173
#	254490
#	267486
#	278346
#	293077
#	307656
#	326895
#
# Disc length: 4494 seconds
#
# Revision: 0
# Processed by: cddbd v1.5.2PL0 Copyright (c) Steve Scherf et al.
# Submitted via: CDex 1.70beta2
#
DISCID=48118c15
DTITLE=Traditional Jazz Studio - Nevšední jiskra vzplála
DYEAR=2006
DGENRE=Jazz
TTITLE0=Bílé sestry
TTITLE1=Hostina chudých
TTITLE2=Hostina bohatých
TTITLE3=Black Dream 
TTITLE4=Jeppe z kopečku
TTITLE5=Život je jen náhoda
TTITLE6=Malý valčík
TTITLE7=The Rum-Tum-Tiddle Dance
TTITLE8=Cottontail Rag
TTITLE9=Vosí Fox
TTITLE10=Ragtime Echo (1986)
TTITLE11=Ragtime Echo (1981)
TTITLE12=Probuď se
TTITLE13=Beránci v modru
TTITLE14=Můj život je taxi
TTITLE15=Bumerang
TTITLE16=That Telegram
TTITLE17=Na rozloučenou
TTITLE18=Beránci v modru
TTITLE19=Na rozloučenou
TTITLE20=Victrola
EXTD=YEAR: 2006
EXTT0=
EXTT1=
EXTT2=
EXTT3=
EXTT4=
EXTT5=
EXTT6=
EXTT7=
EXTT8=
EXTT9=
EXTT10=
EXTT11=
EXTT12=
EXTT13=
EXTT14=
EXTT15=
EXTT16=
EXTT17=
EXTT18=
EXTT19=
EXTT20=
PLAYORDER=
